<?xml version="1.0" encoding="utf-8"?>
<!-- Generator: Adobe Illustrator 22.1.0, SVG Export Plug-In . SVG Version: 6.00 Build 0)  -->
<svg version="1.1" id="Layer_1" xmlns="http://www.w3.org/2000/svg" xmlns:xlink="http://www.w3.org/1999/xlink" x="0px" y="0px"
	 viewBox="0 0 50 50" style="enable-background:new 0 0 50 50;" xml:space="preserve">
<style type="text/css">
	.st0{fill:#E0E2E4;}
	.st1{fill:#FFFFFF;}
	.st2{fill:#FF7640;}
	.st3{fill:none;stroke:#333333;stroke-miterlimit:10;}
	.st4{fill:none;stroke:#FF4800;stroke-miterlimit:10;}
</style>
<circle class="st0" cx="28" cy="27" r="19"/>
<g>
	<path class="st1" d="M42.9,31.8c-0.8,0.6-1.4,1.1-1.6,1.4c-0.2,0.3-0.3,0.7-0.8,1.3v1.1h-3v-1.3c0-0.8,0.2-1.6,0.5-2.2
		c0.4-0.6,1-1.3,2-2c0.9-0.7,1.5-1.2,1.8-1.6s0.4-0.9,0.4-1.4c0-0.6-0.2-1-0.6-1.3c-0.4-0.3-1-0.4-1.7-0.4c-1.3,0-2.8,0.4-4.5,1.3
		L34,23.9c1.9-1.1,4-1.6,6.2-1.6c1.8,0,3.2,0.4,4.3,1.3s1.6,2,1.6,3.4c0,1-0.2,1.8-0.7,2.5c-0.2,0.3-0.4,0.6-0.7,0.9"/>
</g>
<path class="st1" d="M37.1,39.3c0-0.6,0.2-1.1,0.5-1.4c0.3-0.3,0.8-0.5,1.5-0.5c0.6,0,1.1,0.2,1.4,0.5c0.3,0.3,0.5,0.8,0.5,1.4
	c0,0.6-0.2,1.1-0.5,1.4c-0.3,0.3-0.8,0.5-1.4,0.5c-0.6,0-1.1-0.2-1.4-0.5C37.3,40.4,37.1,39.9,37.1,39.3z"/>
<g>
	<path class="st1" d="M10.4,12.7c-5.8,5.8-5.8,15.1,0,20.9s15.1,5.8,20.9,0s5.8-15.1,0-20.9S16.2,7,10.4,12.7z M27.4,29.6
		c-3.6,3.6-9.4,3.6-13,0s-3.6-9.4,0-13s9.4-3.6,13,0S30.9,26.1,27.4,29.6z"/>
	<path class="st2" d="M15.9,17.7c0.7-0.7,1.6-1.3,2.5-1.7l-3.9-3.9c-0.8,0.5-1.6,1.2-2.4,1.9c-0.7,0.7-1.4,1.5-1.9,2.4l3.9,3.9
		C14.6,19.3,15.2,18.5,15.9,17.7z"/>
	<path class="st2" d="M15.9,30.6c-0.7-0.7-1.3-1.6-1.7-2.5L10.3,32c0.5,0.8,1.2,1.6,1.9,2.4c0.7,0.7,1.5,1.4,2.4,1.9l3.9-3.9
		C17.5,31.9,16.7,31.3,15.9,30.6z"/>
	<path class="st2" d="M29.1,30.9c-0.7,0.7-1.6,1.3-2.5,1.7l3.9,3.9c0.8-0.5,1.6-1.2,2.4-1.9c0.7-0.7,1.4-1.5,1.9-2.4l-3.9-3.9
		C30.4,29.3,29.9,30.2,29.1,30.9z"/>
	<path class="st2" d="M30.5,11.8l-3.9,3.9c0.9,0.4,1.8,1,2.5,1.7s1.3,1.6,1.7,2.5l3.9-3.9c-0.5-0.8-1.2-1.6-1.9-2.4
		C32.1,13,31.3,12.3,30.5,11.8z"/>
	<path class="st3" d="M14.4,16.7c0.8-0.8,1.7-1.4,2.7-1.8L13,10.7c-0.9,0.6-1.7,1.2-2.5,2s-1.4,1.6-2,2.5l4.1,4.1
		C13,18.4,13.6,17.5,14.4,16.7z"/>
	<path class="st3" d="M14.4,29.6c-0.8-0.8-1.4-1.7-1.8-2.7L8.5,31c0.6,0.9,1.2,1.7,2,2.5s1.6,1.4,2.5,2l4.1-4.1
		C16.1,31,15.2,30.4,14.4,29.6z"/>
	<path class="st3" d="M27.4,29.6c-0.8,0.8-1.7,1.4-2.7,1.8l4.1,4.1c0.9-0.6,1.7-1.2,2.5-2s1.4-1.6,2-2.5l-4.1-4
		C28.8,27.9,28.2,28.8,27.4,29.6z"/>
	<path class="st3" d="M28.8,10.7l-4.1,4.1c1,0.4,1.9,1,2.7,1.8c0.8,0.8,1.4,1.7,1.8,2.7l4.1-4.1c-0.6-0.9-1.2-1.7-2-2.5
		C30.5,12,29.7,11.3,28.8,10.7z"/>
	<path class="st3" d="M6.7,19c-1.5,5-0.2,10.6,3.7,14.6c5.8,5.8,15.1,5.8,20.9,0c1.4-1.4,2.5-3.1,3.3-4.9 M35.4,20.5
		c-0.5-2.9-1.9-5.6-4.1-7.8C25.5,7,16.2,7,10.4,12.7c-0.2,0.2-0.4,0.4-0.5,0.6 M21.6,32.3c-2.6,0.2-5.2-0.7-7.2-2.7
		c-3.6-3.6-3.6-9.4,0-13s9.4-3.6,13,0s3.6,9.4,0,13c-0.4,0.4-0.8,0.7-1.2,1"/>
</g>
<g>
	<path class="st3" d="M42.9,31.8c-0.8,0.6-1.4,1.1-1.6,1.4c-0.2,0.3-0.3,0.7-0.8,1.3v1.1h-3v-1.3c0-0.8,0.2-1.6,0.5-2.2
		c0.4-0.6,1-1.3,2-2c0.9-0.7,1.5-1.2,1.8-1.6s0.4-0.9,0.4-1.4c0-0.6-0.2-1-0.6-1.3c-0.4-0.3-1-0.4-1.7-0.4c-1.3,0-2.8,0.4-4.5,1.3
		L34,23.9c1.9-1.1,4-1.6,6.2-1.6c1.8,0,3.2,0.4,4.3,1.3s1.6,2,1.6,3.4c0,1-0.2,1.8-0.7,2.5c-0.2,0.3-0.4,0.6-0.7,0.9"/>
</g>
<path class="st4" d="M9.9,7c1.4-1,2.9-1.8,4.5-2.3"/>
<path class="st4" d="M1.5,23c0-4.2,1.3-8,3.5-11.2c0.7-0.9,1.4-1.8,2.2-2.6"/>
<path class="st3" d="M29,40.8c-2.4,1.1-5.1,1.7-8,1.7c-2.2,0-4.2-0.3-6.2-1"/>
<path class="st3" d="M37.1,39.3c0-0.6,0.2-1.1,0.5-1.4c0.3-0.3,0.8-0.5,1.5-0.5c0.6,0,1.1,0.2,1.4,0.5c0.3,0.3,0.5,0.8,0.5,1.4
	c0,0.6-0.2,1.1-0.5,1.4c-0.3,0.3-0.8,0.5-1.4,0.5c-0.6,0-1.1-0.2-1.4-0.5C37.3,40.4,37.1,39.9,37.1,39.3z"/>
<g>
	<line class="st3" x1="39.3" y1="20.1" x2="38.6" y2="18"/>
	<line class="st4" x1="43.3" y1="16.5" x2="43.4" y2="15.5"/>
	<line class="st4" x1="42.8" y1="20" x2="43.1" y2="17.6"/>
	<line class="st3" x1="45.5" y1="21.4" x2="47.3" y2="19.7"/>
	<line class="st3" x1="47.6" y1="24.2" x2="49.7" y2="23.5"/>
</g>
</svg>
