<?xml version="1.0" encoding="utf-8"?>
<!-- Generator: Adobe Illustrator 22.1.0, SVG Export Plug-In . SVG Version: 6.00 Build 0)  -->
<svg version="1.1" id="Layer_1" xmlns="http://www.w3.org/2000/svg" xmlns:xlink="http://www.w3.org/1999/xlink" x="0px" y="0px"
	 viewBox="0 0 50 50" style="enable-background:new 0 0 50 50;" xml:space="preserve">
<style type="text/css">
	.st0{fill:#E0E2E4;}
	.st1{fill:#FF7640;}
	.st2{fill:#FFFFFF;}
	.st3{fill:none;stroke:#333333;stroke-miterlimit:10;}
	.st4{fill:none;stroke:#FF7640;stroke-miterlimit:10;}
	.st5{fill:none;stroke:#333333;stroke-linejoin:round;stroke-miterlimit:10;}
</style>
<circle class="st0" cx="28" cy="27" r="19"/>
<path class="st1" d="M17,39H9.4C8.1,39,7,37.9,7,36.6V17h10"/>
<path class="st2" d="M34.6,37H13V12h24v22.6C37,35.9,35.9,37,34.6,37z"/>
<path class="st3" d="M37.5,32v3.1c0,1.3-1.1,2.4-2.4,2.4H13.5v-29H33"/>
<line class="st3" x1="37.5" y1="20" x2="37.5" y2="29"/>
<path class="st3" d="M16,37.5H7.9c-1.3,0-2.4-1.1-2.4-2.4V15.5H12"/>
<rect x="16.5" y="16.5" class="st3" width="5" height="6"/>
<line class="st3" x1="34" y1="19.5" x2="24" y2="19.5"/>
<line class="st3" x1="34" y1="16.5" x2="24" y2="16.5"/>
<line class="st3" x1="20" y1="27.5" x2="16" y2="27.5"/>
<line class="st3" x1="28" y1="32.5" x2="16" y2="32.5"/>
<line class="st3" x1="35" y1="32.5" x2="30" y2="32.5"/>
<g>
	<line class="st4" x1="5.5" y1="3" x2="5.5" y2="5"/>
	<line class="st4" x1="9" y1="6.5" x2="7" y2="6.5"/>
	<line class="st4" x1="5.5" y1="10" x2="5.5" y2="8"/>
	<line class="st4" x1="2" y1="6.5" x2="4" y2="6.5"/>
</g>
<g>
	<path class="st2" d="M40,6.2l2.3,1.9c0.4,0.4,0.5,1,0.1,1.4L29.6,24.8l-3.8-3.2L38.6,6.3C39,5.9,39.6,5.8,40,6.2z"/>
	<polyline class="st2" points="29,25.6 24,27 25.1,22.4 	"/>
	<path class="st3" d="M34.4,11.3l4.2-5c0.4-0.4,1-0.5,1.4-0.1l2.3,1.9c0.4,0.4,0.5,1,0.1,1.4L29.6,24.8l-3.8-3.2l7.1-8.5"/>
	<polyline class="st5" points="29,25.6 24,27 25.1,22.4 	"/>
	<line class="st3" x1="40.5" y1="11.8" x2="37.5" y2="9.2"/>
</g>
<line class="st3" x1="36" y1="41.5" x2="38" y2="41.5"/>
<line class="st3" x1="29" y1="41.5" x2="35" y2="41.5"/>
<line class="st3" x1="35" y1="45.5" x2="44" y2="45.5"/>
<line class="st3" x1="31" y1="45.5" x2="34" y2="45.5"/>
<line class="st3" x1="32" y1="27.5" x2="22" y2="27.5"/>
<line class="st3" x1="35" y1="27.5" x2="33" y2="27.5"/>
<line class="st3" x1="13" y1="12.5" x2="33" y2="12.5"/>
<line class="st3" x1="15" y1="10.5" x2="17" y2="10.5"/>
<line class="st3" x1="18" y1="10.5" x2="20" y2="10.5"/>
<line class="st3" x1="21" y1="10.5" x2="23" y2="10.5"/>
</svg>
